<svg width="1208" height="718" viewBox="0 0 1208 718" fill="none" xmlns="http://www.w3.org/2000/svg">
<g clip-path="url(#clip0_122_2545)">
<path opacity="0.34" d="M907.5 676.4H288.3C280.676 676.4 274.5 670.224 274.5 662.6C274.5 654.976 280.676 648.8 288.3 648.8H907.5C915.124 648.8 921.3 654.976 921.3 662.6C921.3 670.224 915.124 676.4 907.5 676.4Z" fill="black" stroke="black"/>
<path d="M1155.44 564.517H956.708C936.504 564.517 920.088 548.095 920.088 527.883C920.088 507.671 936.504 491.248 956.708 491.248H1067.67C1091.67 491.248 1111.08 471.825 1111.08 447.823C1111.08 423.821 1091.67 404.399 1067.67 404.399H969.02C942.029 404.399 920.088 382.449 920.088 355.447C920.088 328.445 942.029 306.496 969.02 306.496H1078.72C1102.72 306.496 1122.29 286.915 1122.29 262.913C1122.29 238.911 1102.72 219.33 1078.72 219.33H920.246H882.362C858.37 219.33 838.797 199.75 838.797 175.748C838.797 151.746 858.37 132.165 882.362 132.165H925.297C949.289 132.165 968.862 112.585 968.862 88.5826C968.862 64.5806 949.289 45 925.297 45H900.831H896.726H637.385H628.545H357.68H295.647C271.654 45 252.081 64.5806 252.081 88.5826C252.081 112.585 271.654 132.165 295.647 132.165H314.115C338.107 132.165 357.68 151.746 357.68 175.748C357.68 199.75 338.107 219.33 314.115 219.33H147.902C129.434 219.33 114.439 234.332 114.439 252.807C114.439 271.282 129.434 286.283 147.902 286.283H322.954C342.211 286.283 357.838 301.916 357.838 321.181C357.838 340.446 342.211 356.079 322.954 356.079H43.5657C19.573 356.079 0 375.659 0 399.661C0 423.663 19.573 443.244 43.5657 443.244H314.115C338.107 443.244 357.68 462.825 357.68 486.827C357.68 510.829 338.107 530.409 314.115 530.409H150.743C112.229 530.409 80.9753 561.675 80.9753 600.205C80.9753 638.734 112.229 670 150.743 670H357.68H449.547H501.163H920.246H1155.44C1184.48 670 1208 646.472 1208 617.417C1208 588.046 1184.48 564.517 1155.44 564.517Z" fill="#EEF1FF"/>
<path d="M736.908 662.124H719.908V392.324H736.908V662.124Z" fill="#2F262D" stroke="black"/>
<path d="M650.9 446.4C648 439.9 650.9 432.2 657.5 429.2C659.2 428.5 661 428.1 662.8 428.1C667.9 428.1 672.6 431.1 674.7 435.8L738.7 580L714.9 590.6L650.9 446.4Z" fill="#FC9F6F"/>
<path d="M561.405 662.124H544.405V392.324H561.405V662.124Z" fill="#2F262D" stroke="black"/>
<path d="M514.7 304.2C514.7 362.605 565.053 410 627.2 410C642.812 410 657.666 406.966 671.299 401.544C653.81 437.844 614.934 463.1 569.7 463.1C508.047 463.1 458.2 416.196 458.2 358.3C458.2 315.951 485.013 279.333 523.617 262.856C517.918 275.605 514.7 289.571 514.7 304.2Z" fill="#F2F2F2" stroke="black"/>
<path d="M565.2 438C599.055 438 626.5 412.794 626.5 381.7C626.5 350.607 599.055 325.4 565.2 325.4C531.345 325.4 503.9 350.607 503.9 381.7C503.9 412.794 531.345 438 565.2 438Z" fill="#3B323A"/>
<path d="M454.8 391.3H317.7C312.776 391.3 308.7 387.224 308.7 382.3V373.3C308.7 368.376 312.776 364.3 317.7 364.3H454.8C459.724 364.3 463.8 368.376 463.8 373.3V382.3C463.8 387.224 459.724 391.3 454.8 391.3Z" fill="#AFAFAF" stroke="black"/>
<path d="M618.3 338.8C599.1 338.8 583.5 323.2 583.5 304V269.2C583.5 255.9 572.8 245.2 559.5 245.2V304C559.5 336.5 585.8 362.8 618.3 362.8H667V338.8H618.3Z" fill="#EF9067"/>
<path d="M626.2 155.1C622.6 200.6 582.6 251 545.2 244.6C509.4 238.5 484.8 182 496.9 142.4C504.4 118 525 102.7 541.6 90.3997C558.8 77.5997 570.4 68.9997 583.6 71.0997C609.8 75.0997 629.1 118.9 626.2 155.1Z" fill="#161616"/>
<path d="M575.7 284.6C575 283.8 569.4 277.3 568.4 276.4C565.8 265.7 560.5 253.9 561.6 240.1C554.1 234.6 541.7 227.6 527.6 228.6C523.4 228.9 519 229.9 516.8 230.4C504.6 233.2 496.9 237.7 494.4 239.2C491 241.3 489.3 242.3 487.3 244.3C481.9 249.9 480.6 256.7 479.9 260.7C473.9 295.5 478.6 328.9 479.2 331.8C480.3 337.1 481.8 341.8 481.8 341.8C484.3 349.7 487.3 354.6 488.1 356.8C492.1 367.6 501.2 390.3 510.8 407.6C517.8 408.7 533.7 415.7 544.2 412.1C560.2 406.6 593.2 394.3 605 391.8C590.3 375.3 576.8 356.9 573.3 334.5C572.4 328.7 571.6 323 571 317.4C572.4 316.7 580.9 312.4 582.6 303.8C584.4 294.5 577.1 286.2 575.7 284.6Z" fill="#1B7196"/>
<path d="M539.588 263.492C548.312 261.059 553.087 250.85 550.254 240.69C547.42 230.529 538.051 224.265 529.327 226.698C520.603 229.13 515.828 239.339 518.661 249.5C521.494 259.66 530.863 265.925 539.588 263.492Z" fill="#EF9067"/>
<path d="M531.9 222.4C537.4 235.4 546.5 239.9 552.3 243.3C563.6 249.9 584.8 249.3 584.8 249.3C585.5 244.7 586.2 240.7 589.8 233.1C595 221.8 599.8 219.1 606.5 208.9C616.5 193.5 621.5 174.9 618.3 173.1C616 171.7 609.7 178.9 605.6 183.1C593.9 195.1 567.7 212.9 531.9 222.4Z" fill="#1A1A1A"/>
<path d="M531.5 251H527.3C518.1 251 510.7 243.6 510.7 234.4V171.3H543.9V238.5C543.9 245.4 538.3 251 531.5 251Z" fill="#EF9067"/>
<path d="M362.083 662.124H345.083L345.083 392.324H362.083L362.083 662.124Z" fill="#2F262D" stroke="black"/>
<path d="M472.794 662.124H455.794L455.794 392.324H472.794L472.794 662.124Z" fill="#494149" stroke="black"/>
<path d="M845.25 662.124H828.25V392.324H845.25V662.124Z" fill="#494149" stroke="black"/>
<path opacity="0.71" d="M510.7 178C512.9 197.1 526.1 212.9 543.9 218.9V167.5H510.7V178Z" fill="#D36B46"/>
<path d="M559.5 216.4C535.1 216.4 515.4 196.7 515.4 172.3V118.5C515.4 116.2 517.2 114.4 519.5 114.4H582.2C594 114.4 603.6 124 603.6 135.8V172.3C603.6 196.7 583.9 216.4 559.5 216.4Z" fill="#FC9F6F"/>
<path d="M603.6 166C603.1 167.2 601.9 168 600.6 168H581.2C579.4 168 577.9 166.5 577.9 164.7V153.8C577.9 152 579.4 150.5 581.2 150.5H600.6C601.9 150.5 603.1 151.3 603.6 152.5V148.3C602.7 147.8 601.7 147.5 600.6 147.5H581.2C577.7 147.5 574.9 150.3 574.9 153.8V164.7C574.9 168.2 577.7 171 581.2 171H600.6C601.7 171 602.7 170.7 603.6 170.2V166Z" fill="#DD9883"/>
<path d="M564.6 169.4H545.2C542.5 169.4 540.4 167.2 540.4 164.6V153.7C540.4 151 542.6 148.9 545.2 148.9H564.6C567.3 148.9 569.4 151.1 569.4 153.7V164.6C569.4 167.3 567.2 169.4 564.6 169.4Z" stroke="#DD9883" stroke-width="3" stroke-miterlimit="10" stroke-linecap="round" stroke-linejoin="round"/>
<path opacity="0.6" d="M542.8 180.7V126.9C542.8 124.6 544.6 122.8 546.9 122.8L583.1 110.1C579.2 105 589.1 114.5 582.2 114.5H519.5C517.2 114.5 515.4 116.3 515.4 118.6V172.4C515.4 196.8 535.1 216.5 559.5 216.5C560 216.5 560.5 216.5 561.1 216.5C550 208.4 542.8 195.4 542.8 180.7Z" fill="#EF9067"/>
<path d="M600.6 167.4H581.2C578.5 167.4 576.4 165.2 576.4 162.6V151.7C576.4 149 578.6 146.9 581.2 146.9H600.6C603.3 146.9 605.4 149.1 605.4 151.7V162.6C605.4 165.3 603.2 167.4 600.6 167.4Z" stroke="#F6CDF7" stroke-width="3" stroke-miterlimit="10" stroke-linecap="round" stroke-linejoin="round"/>
<path d="M571 194.2C565.4 194.2 560.9 189.7 560.9 184.2V179.5H580.9V184.2C580.9 189.7 576.5 194.2 571 194.2Z" fill="#FCFAFA"/>
<path d="M552.9 155.9H561.9" stroke="#161515" stroke-width="3" stroke-miterlimit="10" stroke-linecap="round" stroke-linejoin="round"/>
<path d="M586.9 155.9H595.9" stroke="#161515" stroke-width="3" stroke-miterlimit="10" stroke-linecap="round" stroke-linejoin="round"/>
<path d="M564.6 167.4H545.2C542.5 167.4 540.4 165.2 540.4 162.6V151.7C540.4 149 542.6 146.9 545.2 146.9H564.6C567.3 146.9 569.4 149.1 569.4 151.7V162.6C569.4 165.3 567.2 167.4 564.6 167.4Z" stroke="#F6CDF7" stroke-width="3" stroke-miterlimit="10" stroke-linecap="round" stroke-linejoin="round"/>
<path d="M578 73.8998C565.9 58.2998 545.3 58.5998 541.5 58.1998C538.1 57.4998 519.4 58.3998 505.7 61.9998C474.1 70.3998 452.1 98.9998 452.1 131.8V173.8C452.1 202 472.9 236.2 499.6 245.1C514.4 250.1 530.8 253.9 534.7 253.3C514.9 216.6 517.6 194.9 523.2 182.2C536.6 151.2 575.9 152.3 585.6 117.8C585.8 116.8 591.9 91.8998 578 73.8998Z" fill="#1E1E1E"/>
<path d="M701.4 362.5C702.4 359.9 702.9 357.1 702.9 354.2C702.9 340.9 692.2 330.2 678.9 330.2C665.6 330.2 654.9 340.9 654.9 354.2C654.9 357.1 655.4 359.9 656.4 362.5H701.4Z" fill="#EF9067"/>
<path d="M624.4 363.8C622.4 354.6 611.3 347.6 597.8 347.6C584.4 347.6 573.2 354.6 571.2 363.8H624.4Z" fill="#F4EFF0"/>
<path d="M492.7 293.8C500.763 293.8 507.3 283.547 507.3 270.9C507.3 258.253 500.763 248 492.7 248C484.637 248 478.1 258.253 478.1 270.9C478.1 283.547 484.637 293.8 492.7 293.8Z" fill="#EF9067"/>
<path d="M536.9 339.6C517.7 339.6 502.1 324 502.1 304.8V262.3C502.1 255.7 496.7 250.3 490.1 250.3C483.5 250.3 478.1 255.7 478.1 262.3V304.8C478.1 337.3 504.4 363.6 536.9 363.6H585.6V339.6H561.2H536.9Z" fill="#FC9F6F"/>
<path d="M739.1 363.8H627.1C625.7 363.8 624.5 362.6 624.5 361.2C624.5 359.8 625.7 358.6 627.1 358.6H739.2C740.6 358.6 741.8 359.8 741.8 361.2C741.8 362.6 740.6 363.8 739.1 363.8Z" fill="white"/>
<path d="M739.1 361.2H627.1C626.1 361.2 625.3 360.7 624.8 359.9C624.6 360.3 624.4 360.7 624.4 361.2C624.4 362.6 625.6 363.8 627 363.8H739.1C740.5 363.8 741.7 362.6 741.7 361.2C741.7 360.7 741.6 360.3 741.3 359.9C740.9 360.6 740.1 361.2 739.1 361.2Z" fill="#F4EFF0"/>
<path d="M648.8 363.8H627.1C625.7 363.8 624.5 362.6 624.5 361.2C624.5 359.8 625.7 358.6 627.1 358.6H648.8C650.2 358.6 651.4 359.8 651.4 361.2C651.4 362.6 650.3 363.8 648.8 363.8Z" fill="#F4EFF0"/>
<path d="M731.2 358.6H723V356.7C723 355.7 723.8 354.8 724.9 354.8H729.3C730.3 354.8 731.2 355.6 731.2 356.7V358.6Z" fill="#F4EFF0"/>
<path d="M721.2 358.6H713V356.7C713 355.7 713.8 354.8 714.9 354.8H719.3C720.3 354.8 721.2 355.6 721.2 356.7V358.6Z" fill="#F4EFF0"/>
<path d="M711.2 358.6H703V356.7C703 355.7 703.8 354.8 704.9 354.8H709.3C710.3 354.8 711.2 355.6 711.2 356.7V358.6Z" fill="#F4EFF0"/>
<path d="M701.2 358.6H693V356.7C693 355.7 693.8 354.8 694.9 354.8H699.3C700.3 354.8 701.2 355.6 701.2 356.7V358.6Z" fill="#F4EFF0"/>
<path d="M691.2 358.6H683V356.7C683 355.7 683.8 354.8 684.9 354.8H689.3C690.3 354.8 691.2 355.6 691.2 356.7V358.6Z" fill="#F4EFF0"/>
<path d="M681.2 358.6H673V356.7C673 355.7 673.8 354.8 674.9 354.8H679.3C680.3 354.8 681.2 355.6 681.2 356.7V358.6Z" fill="#F4EFF0"/>
<path d="M671.2 358.6H663V356.7C663 355.7 663.8 354.8 664.9 354.8H669.3C670.3 354.8 671.2 355.6 671.2 356.7V358.6Z" fill="#F4EFF0"/>
<path d="M661.2 358.6H653V356.7C653 355.7 653.8 354.8 654.9 354.8H659.3C660.3 354.8 661.2 355.6 661.2 356.7V358.6Z" fill="#F4EFF0"/>
<path d="M651.2 358.6H643V356.7C643 355.7 643.8 354.8 644.9 354.8H649.3C650.3 354.8 651.2 355.6 651.2 356.7V358.6Z" fill="#F4EFF0"/>
<path d="M641.2 358.6H633V356.7C633 355.7 633.8 354.8 634.9 354.8H639.3C640.3 354.8 641.2 355.6 641.2 356.7V358.6Z" fill="#F4EFF0"/>
<path d="M627.1 363.8H648.8C650.2 363.8 651.4 362.6 651.4 361.2H624.4C624.4 362.6 625.6 363.8 627.1 363.8Z" fill="#E2E2E2"/>
<path d="M636.8 445H557.7L557.1 403H655.1C661.7 403 667 408.3 667 414.9C666.9 431.6 653.4 445 636.8 445Z" fill="#352934"/>
<path d="M573.2 597.3L621.7 433.3C623.3 427.8 628.4 424 634.2 424C635.4 424 636.7 424.2 637.9 424.5C644.8 426.5 648.7 433.8 646.7 440.7L598.2 604.7L573.2 597.3Z" fill="#EF9067"/>
<path d="M613.5 583.9L573.2 572L624 400.3C627.3 389.2 639 382.8 650.1 386.1C661.2 389.4 667.6 401.1 664.3 412.2L613.5 583.9Z" fill="#352934"/>
<path d="M660.993 189.286L661 189.243V189.2C661 186.176 663.476 183.7 666.5 183.7H834.5C837.51 183.7 839.977 186.153 840 189.158L819.207 309.115L819.2 309.157V309.2C819.2 312.23 816.818 314.7 813.7 314.7H645.7C642.69 314.7 640.223 312.247 640.2 309.242L660.993 189.286Z" fill="#CECECE" stroke="black"/>
<path d="M670.993 189.286L671 189.243V189.2C671 186.176 673.476 183.7 676.5 183.7H844.5C847.51 183.7 849.977 186.153 850 189.158L829.207 309.115L829.2 309.157V309.2C829.2 312.23 826.818 314.7 823.7 314.7H655.7C652.69 314.7 650.223 312.247 650.2 309.242L670.993 189.286Z" fill="#F4EFF0" stroke="black"/>
<path d="M771.909 357.397L771.91 357.398C772.547 360.585 770.091 363.592 766.713 363.501L766.713 363.5H766.7H743.3H718.629C718.875 361.395 720.658 359.7 722.9 359.7H737.9C740.501 359.7 742.557 357.324 741.989 354.699C741.989 354.697 741.989 354.696 741.988 354.694L729.79 293.003L729.79 293.003L729.789 292.999C729.255 290.415 731.311 287.9 734 287.9H758.189L771.909 357.397Z" fill="#CECECE" stroke="black"/>
<path d="M733.891 289.003L733.891 289.003L733.888 288.992C733.824 288.702 733.903 288.468 734.057 288.3C734.216 288.125 734.478 288 734.8 288H763.089L777.208 359.489C777.553 361.584 775.886 363.6 773.7 363.6H748.611L733.891 289.003Z" fill="#F4EFF0" stroke="black"/>
<path d="M742.613 357.8H746.487L747.595 363.6H743.808L742.613 357.8Z" fill="#F4EFF0" stroke="black"/>
<path d="M742.159 357.8H746.49L746.81 359.398L746.81 359.398C747.223 361.463 745.769 363.366 743.774 363.58L742.159 357.8Z" fill="#CECECE" stroke="black"/>
<path d="M649.1 422.1L566.7 443.8C544.3 449.7 521.6 433.8 510.7 407.5L638.4 381.4C649.6 378.5 661.1 385.2 664 396.4C667 407.7 660.3 419.2 649.1 422.1Z" fill="#3B323A"/>
<path d="M732 547.1L693.6 564.2L626.3 412.8C621.6 402.2 626.4 389.8 637 385.1C647.6 380.4 660 385.2 664.7 395.8L732 547.1Z" fill="#3B323A"/>
<path d="M874.7 391.3H446.5C441.48 391.3 437.5 387.227 437.5 382.3V373.3C437.5 368.376 441.576 364.3 446.5 364.3H874.7C879.624 364.3 883.7 368.376 883.7 373.3V382.3C883.7 387.224 879.624 391.3 874.7 391.3Z" fill="#F2F2F2" stroke="black"/>
<path d="M794.6 595.8L709.5 611.3C706.2 611.9 703.1 609.8 702.4 606.7L701.8 604C700.1 596.2 705.1 588.3 713.3 586.2L775.3 570.5C787.3 567.5 799.4 573 801.6 583.1L802.4 586.7C803.3 590.8 799.8 594.9 794.6 595.8Z" fill="#535452"/>
<path d="M797.9 588.1L702.8 605.4C702.6 605.4 702.4 605.5 702.2 605.5L702.5 606.7C703.2 609.9 706.3 611.9 709.6 611.3L794.7 595.8C799.9 594.9 803.5 590.8 802.6 586.7L802.5 586.4C801.1 587.2 799.6 587.8 797.9 588.1Z" fill="#FFFDFD"/>
<path d="M618.9 649.3L547.8 600.1C545.1 598.2 544.3 594.5 546.1 591.8L547.6 589.4C551.9 582.7 561.1 580.6 568.3 585L623.2 617.8C633.9 624.2 638.5 636.7 632.9 645.3L630.9 648.4C628.7 651.9 623.2 652.3 618.9 649.3Z" fill="#424441"/>
<path d="M626.7 646.2L547.2 591.2C547 591.1 546.9 590.9 546.7 590.8L546.1 591.8C544.4 594.5 545.1 598.2 547.8 600.1L618.9 649.3C623.2 652.3 628.7 651.9 630.9 648.4L631.1 648.1C629.6 647.8 628.1 647.1 626.7 646.2Z" fill="#CECECE"/>
<path d="M422 363.8H405.8C397.6 363.8 390.9 357.1 390.9 348.9V304.8H436.9V348.9C437 357.1 430.3 363.8 422 363.8Z" fill="#FF6161"/>
<path d="M396.1 310.8C385.4 310.8 376.8 319.5 376.8 330.1C376.8 340.7 385.5 349.4 396.1 349.4C406.7 349.4 415.4 340.7 415.4 330.1C415.4 319.5 406.7 310.8 396.1 310.8ZM396.1 345.2C387.8 345.2 381 338.4 381 330.1C381 321.8 387.8 315 396.1 315C404.4 315 411.2 321.8 411.2 330.1C411.1 338.5 404.4 345.2 396.1 345.2Z" fill="#F4A36C"/>
<path d="M422 363.8H405.8C397.6 363.8 390.9 357.1 390.9 348.9V304.8H436.9V348.9C437 357.1 430.3 363.8 422 363.8Z" fill="#F7BC8B"/>
<path d="M412.7 349.8C408.1 349.8 404.4 346.1 404.4 341.5V304.8H390.9V348.9C390.9 357.1 397.6 363.8 405.8 363.8H422C429.9 363.8 436.4 357.6 436.9 349.8H412.7Z" fill="#EFA573"/>
<path d="M603.4 363.8C604.4 361.2 604.9 358.4 604.9 355.5C604.9 342.2 594.2 331.5 580.9 331.5C567.6 331.5 556.9 342.2 556.9 355.5C556.9 358.4 557.4 361.2 558.4 363.8H603.4Z" fill="#FC9F6F"/>
<path opacity="0.77" d="M408.9 296.8C412.49 296.8 415.4 293.89 415.4 290.3C415.4 286.71 412.49 283.8 408.9 283.8C405.31 283.8 402.4 286.71 402.4 290.3C402.4 293.89 405.31 296.8 408.9 296.8Z" fill="#F2F2F2"/>
<path opacity="0.77" d="M420.9 277.3C426.257 277.3 430.6 272.958 430.6 267.6C430.6 262.243 426.257 257.9 420.9 257.9C415.543 257.9 411.2 262.243 411.2 267.6C411.2 272.958 415.543 277.3 420.9 277.3Z" fill="#F2F2F2"/>
<line x1="569" y1="156.5" x2="576" y2="156.5" stroke="#F6CDF7"/>
<path d="M758.312 243.172C758.312 247.812 751 251.75 751 251.75C751 251.75 743.688 247.812 743.688 243.172C743.688 242.165 744.088 241.199 744.8 240.487C745.512 239.775 746.477 239.375 747.484 239.375C749.073 239.375 750.433 240.241 751 241.625C751.567 240.241 752.927 239.375 754.516 239.375C755.523 239.375 756.488 239.775 757.2 240.487C757.912 241.199 758.312 242.165 758.312 243.172Z" fill="#CECECE"/>
<path d="M754.516 238.812C753.064 238.812 751.792 239.437 751 240.492C750.208 239.437 748.936 238.812 747.484 238.812C746.329 238.814 745.221 239.274 744.403 240.091C743.586 240.908 743.126 242.016 743.125 243.172C743.125 248.094 750.423 252.078 750.734 252.242C750.815 252.286 750.907 252.309 751 252.309C751.093 252.309 751.185 252.286 751.266 252.242C751.577 252.078 758.875 248.094 758.875 243.172C758.874 242.016 758.414 240.908 757.597 240.091C756.779 239.274 755.671 238.814 754.516 238.812ZM751 251.103C749.716 250.355 744.25 246.947 744.25 243.172C744.251 242.314 744.592 241.492 745.199 240.886C745.805 240.28 746.627 239.939 747.484 239.938C748.852 239.938 750 240.666 750.48 241.836C750.522 241.939 750.594 242.027 750.687 242.089C750.779 242.152 750.888 242.185 751 242.185C751.112 242.185 751.221 242.152 751.313 242.089C751.406 242.027 751.478 241.939 751.52 241.836C752 240.664 753.148 239.938 754.516 239.938C755.373 239.939 756.195 240.28 756.801 240.886C757.408 241.492 757.749 242.314 757.75 243.172C757.75 246.941 752.282 250.354 751 251.103Z" fill="black"/>
</g>
<defs>
<clipPath id="clip0_122_2545">
<rect width="1208" height="718" fill="white"/>
</clipPath>
</defs>
</svg>
