<svg width="1000" height="1000" viewBox="0 0 1000 1000" fill="none" xmlns="http://www.w3.org/2000/svg">
<g clip-path="url(#clip0_121_2452)">
<path d="M1000 0H0V1000H1000V0Z" fill="#EEF1FF"/>
<path opacity="0.34" d="M826.5 817.4H207.3C199.676 817.4 193.5 811.224 193.5 803.6C193.5 795.976 199.676 789.8 207.3 789.8H826.5C834.124 789.8 840.3 795.976 840.3 803.6C840.3 811.224 834.124 817.4 826.5 817.4Z" fill="black" stroke="black"/>
<path d="M872 629.5H746.1C733.3 629.5 722.9 619.1 722.9 606.3C722.9 593.5 733.3 583.1 746.1 583.1H816.4C831.6 583.1 843.9 570.8 843.9 555.6C843.9 540.4 831.6 528.1 816.4 528.1H753.9C736.8 528.1 722.9 514.2 722.9 497.1C722.9 480 736.8 466.1 753.9 466.1H823.4C838.6 466.1 851 453.7 851 438.5C851 423.3 838.6 410.9 823.4 410.9H723H699C683.8 410.9 671.4 398.5 671.4 383.3C671.4 368.1 683.8 355.7 699 355.7H726.2C741.4 355.7 753.8 343.3 753.8 328.1C753.8 312.9 741.4 300.5 726.2 300.5H710.7H708.1H543.8H538.2H366.6H327.3C312.1 300.5 299.7 312.9 299.7 328.1C299.7 343.3 312.1 355.7 327.3 355.7H339C354.2 355.7 366.6 368.1 366.6 383.3C366.6 398.5 354.2 410.9 339 410.9H233.7C222 410.9 212.5 420.4 212.5 432.1C212.5 443.8 222 453.3 233.7 453.3H344.6C356.8 453.3 366.7 463.2 366.7 475.4C366.7 487.6 356.8 497.5 344.6 497.5H167.6C152.4 497.5 140 509.9 140 525.1C140 540.3 152.4 552.7 167.6 552.7H339C354.2 552.7 366.6 565.1 366.6 580.3C366.6 595.5 354.2 607.9 339 607.9H235.5C211.1 607.9 191.3 627.7 191.3 652.1C191.3 676.5 211.1 696.3 235.5 696.3H366.6H424.8H457.5H723H872C890.4 696.3 905.3 681.4 905.3 663C905.3 644.4 890.4 629.5 872 629.5Z" fill="#DEEAFF"/>
<path d="M655.908 803.124H638.908V533.324H655.908V803.124Z" fill="#2F262D" stroke="black"/>
<path d="M569.9 587.4C567 580.9 569.9 573.2 576.5 570.2C578.2 569.5 580 569.1 581.8 569.1C586.9 569.1 591.6 572.1 593.7 576.8L657.7 721L633.9 731.6L569.9 587.4Z" fill="#FC9F6F"/>
<path d="M480.405 803.124H463.405L463.405 533.324H480.405L480.405 803.124Z" fill="#2F262D" stroke="black"/>
<path d="M433.7 445.2C433.7 503.605 484.053 551 546.2 551C561.812 551 576.666 547.966 590.3 542.544C572.811 578.844 533.934 604.1 488.7 604.1C427.047 604.1 377.2 557.196 377.2 499.3C377.2 456.951 404.013 420.333 442.617 403.856C436.918 416.605 433.7 430.571 433.7 445.2Z" fill="#F2F2F2" stroke="black"/>
<path d="M484.2 579C518.055 579 545.5 553.794 545.5 522.7C545.5 491.607 518.055 466.4 484.2 466.4C450.345 466.4 422.9 491.607 422.9 522.7C422.9 553.794 450.345 579 484.2 579Z" fill="#3B323A"/>
<path d="M373.8 532.3H236.7C231.776 532.3 227.7 528.224 227.7 523.3V514.3C227.7 509.376 231.776 505.3 236.7 505.3H373.8C378.724 505.3 382.8 509.376 382.8 514.3V523.3C382.8 528.224 378.724 532.3 373.8 532.3Z" fill="#AFAFAF" stroke="black"/>
<path d="M537.3 479.8C518.1 479.8 502.5 464.2 502.5 445V410.2C502.5 396.9 491.8 386.2 478.5 386.2V445C478.5 477.5 504.8 503.8 537.3 503.8H586V479.8H537.3Z" fill="#EF9067"/>
<path d="M545.2 296.1C541.6 341.6 501.6 392 464.2 385.6C428.4 379.5 403.8 323 415.9 283.4C423.4 259 444 243.7 460.6 231.4C477.8 218.6 489.4 210 502.6 212.1C528.8 216.1 548.1 259.9 545.2 296.1Z" fill="#161616"/>
<path d="M494.7 425.6C494 424.8 488.4 418.3 487.4 417.4C484.8 406.7 479.5 394.9 480.6 381.1C473.1 375.6 460.7 368.6 446.6 369.6C442.4 369.9 438 370.9 435.8 371.4C423.6 374.2 415.9 378.7 413.4 380.2C410 382.3 408.3 383.3 406.3 385.3C400.9 390.9 399.6 397.7 398.9 401.7C392.9 436.5 397.6 469.9 398.2 472.8C399.3 478.1 400.8 482.8 400.8 482.8C403.3 490.7 406.3 495.6 407.1 497.8C411.1 508.6 420.2 531.3 429.8 548.6C436.8 549.7 452.7 556.7 463.2 553.1C479.2 547.6 512.2 535.3 524 532.8C509.3 516.3 495.8 497.9 492.3 475.5C491.4 469.7 490.6 464 490 458.4C491.4 457.7 499.9 453.4 501.6 444.8C503.4 435.5 496.1 427.2 494.7 425.6Z" fill="#1B7196"/>
<path d="M458.588 404.492C467.312 402.059 472.087 391.85 469.254 381.69C466.42 371.529 457.051 365.265 448.327 367.698C439.603 370.13 434.828 380.339 437.661 390.5C440.494 400.66 449.863 406.925 458.588 404.492Z" fill="#EF9067"/>
<path d="M450.9 363.4C456.4 376.4 465.5 380.9 471.3 384.3C482.6 390.9 503.8 390.3 503.8 390.3C504.5 385.7 505.2 381.7 508.8 374.1C514 362.8 518.8 360.1 525.5 349.9C535.5 334.5 540.5 315.9 537.3 314.1C535 312.7 528.7 319.9 524.6 324.1C512.9 336.1 486.7 353.9 450.9 363.4Z" fill="#1A1A1A"/>
<path d="M450.5 392H446.3C437.1 392 429.7 384.6 429.7 375.4V312.3H462.9V379.5C462.9 386.4 457.3 392 450.5 392Z" fill="#EF9067"/>
<path d="M281.083 803.124H264.083L264.083 533.324H281.083L281.083 803.124Z" fill="#2F262D" stroke="black"/>
<path d="M391.794 803.124H374.794L374.794 533.324H391.794L391.794 803.124Z" fill="#494149" stroke="black"/>
<path d="M764.25 803.124H747.25V533.324H764.25V803.124Z" fill="#494149" stroke="black"/>
<path opacity="0.71" d="M429.7 319C431.9 338.1 445.1 353.9 462.9 359.9V308.5H429.7V319Z" fill="#D36B46"/>
<path d="M478.5 357.4C454.1 357.4 434.4 337.7 434.4 313.3V259.5C434.4 257.2 436.2 255.4 438.5 255.4H501.2C513 255.4 522.6 265 522.6 276.8V313.3C522.6 337.7 502.9 357.4 478.5 357.4Z" fill="#FC9F6F"/>
<path d="M522.6 307C522.1 308.2 520.9 309 519.6 309H500.2C498.4 309 496.9 307.5 496.9 305.7V294.8C496.9 293 498.4 291.5 500.2 291.5H519.6C520.9 291.5 522.1 292.3 522.6 293.5V289.3C521.7 288.8 520.7 288.5 519.6 288.5H500.2C496.7 288.5 493.9 291.3 493.9 294.8V305.7C493.9 309.2 496.7 312 500.2 312H519.6C520.7 312 521.7 311.7 522.6 311.2V307Z" fill="#DD9883"/>
<path d="M483.6 310.4H464.2C461.5 310.4 459.4 308.2 459.4 305.6V294.7C459.4 292 461.6 289.9 464.2 289.9H483.6C486.3 289.9 488.4 292.1 488.4 294.7V305.6C488.4 308.3 486.2 310.4 483.6 310.4Z" stroke="#DD9883" stroke-width="3" stroke-miterlimit="10" stroke-linecap="round" stroke-linejoin="round"/>
<path opacity="0.6" d="M461.8 321.7V267.9C461.8 265.6 463.6 263.8 465.9 263.8L502.1 251.1C498.2 246 508.1 255.5 501.2 255.5H438.5C436.2 255.5 434.4 257.3 434.4 259.6V313.4C434.4 337.8 454.1 357.5 478.5 357.5C479 357.5 479.5 357.5 480.1 357.5C469 349.4 461.8 336.4 461.8 321.7Z" fill="#EF9067"/>
<path d="M519.6 308.4H500.2C497.5 308.4 495.4 306.2 495.4 303.6V292.7C495.4 290 497.6 287.9 500.2 287.9H519.6C522.3 287.9 524.4 290.1 524.4 292.7V303.6C524.4 306.3 522.2 308.4 519.6 308.4Z" stroke="#F6CDF7" stroke-width="3" stroke-miterlimit="10" stroke-linecap="round" stroke-linejoin="round"/>
<path d="M490 335.2C484.4 335.2 479.9 330.7 479.9 325.2V320.5H499.9V325.2C499.9 330.7 495.5 335.2 490 335.2Z" fill="#FCFAFA"/>
<path d="M471.9 296.9H480.9" stroke="#161515" stroke-width="3" stroke-miterlimit="10" stroke-linecap="round" stroke-linejoin="round"/>
<path d="M505.9 296.9H514.9" stroke="#161515" stroke-width="3" stroke-miterlimit="10" stroke-linecap="round" stroke-linejoin="round"/>
<path d="M483.6 308.4H464.2C461.5 308.4 459.4 306.2 459.4 303.6V292.7C459.4 290 461.6 287.9 464.2 287.9H483.6C486.3 287.9 488.4 290.1 488.4 292.7V303.6C488.4 306.3 486.2 308.4 483.6 308.4Z" stroke="#F6CDF7" stroke-width="3" stroke-miterlimit="10" stroke-linecap="round" stroke-linejoin="round"/>
<path d="M497 214.9C484.9 199.3 464.3 199.6 460.5 199.2C457.1 198.5 438.4 199.4 424.7 203C393.1 211.4 371.1 240 371.1 272.8V314.8C371.1 343 391.9 377.2 418.6 386.1C433.4 391.1 449.8 394.9 453.7 394.3C433.9 357.6 436.6 335.9 442.2 323.2C455.6 292.2 494.9 293.3 504.6 258.8C504.8 257.8 510.9 232.9 497 214.9Z" fill="#1E1E1E"/>
<path d="M620.4 503.5C621.4 500.9 621.9 498.1 621.9 495.2C621.9 481.9 611.2 471.2 597.9 471.2C584.6 471.2 573.9 481.9 573.9 495.2C573.9 498.1 574.4 500.9 575.4 503.5H620.4Z" fill="#EF9067"/>
<path d="M543.4 504.8C541.4 495.6 530.3 488.6 516.8 488.6C503.4 488.6 492.2 495.6 490.2 504.8H543.4Z" fill="#F4EFF0"/>
<path d="M411.7 434.8C419.763 434.8 426.3 424.547 426.3 411.9C426.3 399.253 419.763 389 411.7 389C403.637 389 397.1 399.253 397.1 411.9C397.1 424.547 403.637 434.8 411.7 434.8Z" fill="#EF9067"/>
<path d="M455.9 480.6C436.7 480.6 421.1 465 421.1 445.8V403.3C421.1 396.7 415.7 391.3 409.1 391.3C402.5 391.3 397.1 396.7 397.1 403.3V445.8C397.1 478.3 423.4 504.6 455.9 504.6H504.6V480.6H480.2H455.9Z" fill="#FC9F6F"/>
<path d="M658.1 504.8H546.1C544.7 504.8 543.5 503.6 543.5 502.2C543.5 500.8 544.7 499.6 546.1 499.6H658.2C659.6 499.6 660.8 500.8 660.8 502.2C660.8 503.6 659.6 504.8 658.1 504.8Z" fill="white"/>
<path d="M658.1 502.2H546.1C545.1 502.2 544.3 501.7 543.8 500.9C543.6 501.3 543.4 501.7 543.4 502.2C543.4 503.6 544.6 504.8 546 504.8H658.1C659.5 504.8 660.7 503.6 660.7 502.2C660.7 501.7 660.6 501.3 660.3 500.9C659.9 501.6 659.1 502.2 658.1 502.2Z" fill="#F4EFF0"/>
<path d="M567.8 504.8H546.1C544.7 504.8 543.5 503.6 543.5 502.2C543.5 500.8 544.7 499.6 546.1 499.6H567.8C569.2 499.6 570.4 500.8 570.4 502.2C570.4 503.6 569.3 504.8 567.8 504.8Z" fill="#F4EFF0"/>
<path d="M650.2 499.6H642V497.7C642 496.7 642.8 495.8 643.9 495.8H648.3C649.3 495.8 650.2 496.6 650.2 497.7V499.6Z" fill="#F4EFF0"/>
<path d="M640.2 499.6H632V497.7C632 496.7 632.8 495.8 633.9 495.8H638.3C639.3 495.8 640.2 496.6 640.2 497.7V499.6Z" fill="#F4EFF0"/>
<path d="M630.2 499.6H622V497.7C622 496.7 622.8 495.8 623.9 495.8H628.3C629.3 495.8 630.2 496.6 630.2 497.7V499.6Z" fill="#F4EFF0"/>
<path d="M620.2 499.6H612V497.7C612 496.7 612.8 495.8 613.9 495.8H618.3C619.3 495.8 620.2 496.6 620.2 497.7V499.6Z" fill="#F4EFF0"/>
<path d="M610.2 499.6H602V497.7C602 496.7 602.8 495.8 603.9 495.8H608.3C609.3 495.8 610.2 496.6 610.2 497.7V499.6Z" fill="#F4EFF0"/>
<path d="M600.2 499.6H592V497.7C592 496.7 592.8 495.8 593.9 495.8H598.3C599.3 495.8 600.2 496.6 600.2 497.7V499.6Z" fill="#F4EFF0"/>
<path d="M590.2 499.6H582V497.7C582 496.7 582.8 495.8 583.9 495.8H588.3C589.3 495.8 590.2 496.6 590.2 497.7V499.6Z" fill="#F4EFF0"/>
<path d="M580.2 499.6H572V497.7C572 496.7 572.8 495.8 573.9 495.8H578.3C579.3 495.8 580.2 496.6 580.2 497.7V499.6Z" fill="#F4EFF0"/>
<path d="M570.2 499.6H562V497.7C562 496.7 562.8 495.8 563.9 495.8H568.3C569.3 495.8 570.2 496.6 570.2 497.7V499.6Z" fill="#F4EFF0"/>
<path d="M560.2 499.6H552V497.7C552 496.7 552.8 495.8 553.9 495.8H558.3C559.3 495.8 560.2 496.6 560.2 497.7V499.6Z" fill="#F4EFF0"/>
<path d="M546.1 504.8H567.8C569.2 504.8 570.4 503.6 570.4 502.2H543.4C543.4 503.6 544.6 504.8 546.1 504.8Z" fill="#E2E2E2"/>
<path d="M555.8 586H476.7L476.1 544H574.1C580.7 544 586 549.3 586 555.9C585.9 572.6 572.4 586 555.8 586Z" fill="#352934"/>
<path d="M492.2 738.3L540.7 574.3C542.3 568.8 547.4 565 553.2 565C554.4 565 555.7 565.2 556.9 565.5C563.8 567.5 567.7 574.8 565.7 581.7L517.2 745.7L492.2 738.3Z" fill="#EF9067"/>
<path d="M532.5 724.9L492.2 713L543 541.3C546.3 530.2 558 523.8 569.1 527.1C580.2 530.4 586.6 542.1 583.3 553.2L532.5 724.9Z" fill="#352934"/>
<path d="M579.993 330.286L580 330.243V330.2C580 327.176 582.476 324.7 585.5 324.7H753.5C756.51 324.7 758.977 327.153 759 330.158L738.207 450.115L738.2 450.157V450.2C738.2 453.23 735.818 455.7 732.7 455.7H564.7C561.69 455.7 559.223 453.247 559.2 450.242L579.993 330.286Z" fill="#CECECE" stroke="black"/>
<path d="M589.993 330.286L590 330.243V330.2C590 327.176 592.476 324.7 595.5 324.7H763.5C766.51 324.7 768.977 327.153 769 330.158L748.207 450.115L748.2 450.157V450.2C748.2 453.23 745.818 455.7 742.7 455.7H574.7C571.69 455.7 569.223 453.247 569.2 450.242L589.993 330.286Z" fill="#F4EFF0" stroke="black"/>
<path d="M690.909 498.397L690.91 498.398C691.547 501.585 689.091 504.592 685.714 504.501L685.714 504.5H685.7H662.3H637.629C637.875 502.395 639.658 500.7 641.9 500.7H656.9C659.502 500.7 661.557 498.324 660.99 495.699C660.989 495.697 660.989 495.696 660.989 495.694L648.79 434.003L648.791 434.003L648.79 433.999C648.255 431.415 650.311 428.9 653 428.9H677.189L690.909 498.397Z" fill="#CECECE" stroke="black"/>
<path d="M652.891 430.003L652.891 430.003L652.888 429.992C652.824 429.702 652.903 429.468 653.057 429.3C653.217 429.125 653.478 429 653.8 429H682.089L696.208 500.489C696.553 502.584 694.886 504.6 692.7 504.6H667.611L652.891 430.003Z" fill="#F4EFF0" stroke="black"/>
<path d="M661.613 498.8H665.487L666.595 504.6H662.808L661.613 498.8Z" fill="#F4EFF0" stroke="black"/>
<path d="M661.159 498.8H665.49L665.81 500.398L665.81 500.398C666.223 502.463 664.769 504.366 662.774 504.58L661.159 498.8Z" fill="#CECECE" stroke="black"/>
<path d="M568.1 563.1L485.7 584.8C463.3 590.7 440.6 574.8 429.7 548.5L557.4 522.4C568.6 519.5 580.1 526.2 583 537.4C586 548.7 579.3 560.2 568.1 563.1Z" fill="#3B323A"/>
<path d="M651 688.1L612.6 705.2L545.3 553.8C540.6 543.2 545.4 530.8 556 526.1C566.6 521.4 579 526.2 583.7 536.8L651 688.1Z" fill="#3B323A"/>
<path d="M793.7 532.3H365.5C360.48 532.3 356.5 528.227 356.5 523.3V514.3C356.5 509.376 360.576 505.3 365.5 505.3H793.7C798.624 505.3 802.7 509.376 802.7 514.3V523.3C802.7 528.224 798.624 532.3 793.7 532.3Z" fill="#F2F2F2" stroke="black"/>
<path d="M713.6 736.8L628.5 752.3C625.2 752.9 622.1 750.8 621.4 747.7L620.8 745C619.1 737.2 624.1 729.3 632.3 727.2L694.3 711.5C706.3 708.5 718.4 714 720.6 724.1L721.4 727.7C722.3 731.8 718.8 735.9 713.6 736.8Z" fill="#535452"/>
<path d="M716.9 729.1L621.8 746.4C621.6 746.4 621.4 746.5 621.2 746.5L621.5 747.7C622.2 750.9 625.3 752.9 628.6 752.3L713.7 736.8C718.9 735.9 722.5 731.8 721.6 727.7L721.5 727.4C720.1 728.2 718.6 728.8 716.9 729.1Z" fill="#FFFDFD"/>
<path d="M537.9 790.3L466.8 741.1C464.1 739.2 463.3 735.5 465.1 732.8L466.6 730.4C470.9 723.7 480.1 721.6 487.3 726L542.2 758.8C552.9 765.2 557.5 777.7 551.9 786.3L549.9 789.4C547.7 792.9 542.2 793.3 537.9 790.3Z" fill="#424441"/>
<path d="M545.7 787.2L466.2 732.2C466 732.1 465.9 731.9 465.7 731.8L465.1 732.8C463.4 735.5 464.1 739.2 466.8 741.1L537.9 790.3C542.2 793.3 547.7 792.9 549.9 789.4L550.1 789.1C548.6 788.8 547.1 788.1 545.7 787.2Z" fill="#CECECE"/>
<path d="M341 504.8H324.8C316.6 504.8 309.9 498.1 309.9 489.9V445.8H355.9V489.9C356 498.1 349.3 504.8 341 504.8Z" fill="#FF6161"/>
<path d="M315.1 451.8C304.4 451.8 295.8 460.5 295.8 471.1C295.8 481.7 304.5 490.4 315.1 490.4C325.7 490.4 334.4 481.7 334.4 471.1C334.4 460.5 325.7 451.8 315.1 451.8ZM315.1 486.2C306.8 486.2 300 479.4 300 471.1C300 462.8 306.8 456 315.1 456C323.4 456 330.2 462.8 330.2 471.1C330.1 479.5 323.4 486.2 315.1 486.2Z" fill="#F4A36C"/>
<path d="M341 504.8H324.8C316.6 504.8 309.9 498.1 309.9 489.9V445.8H355.9V489.9C356 498.1 349.3 504.8 341 504.8Z" fill="#F7BC8B"/>
<path d="M331.7 490.8C327.1 490.8 323.4 487.1 323.4 482.5V445.8H309.9V489.9C309.9 498.1 316.6 504.8 324.8 504.8H341C348.9 504.8 355.4 498.6 355.9 490.8H331.7Z" fill="#EFA573"/>
<path d="M522.4 504.8C523.4 502.2 523.9 499.4 523.9 496.5C523.9 483.2 513.2 472.5 499.9 472.5C486.6 472.5 475.9 483.2 475.9 496.5C475.9 499.4 476.4 502.2 477.4 504.8H522.4Z" fill="#FC9F6F"/>
<path opacity="0.77" d="M327.9 437.8C331.49 437.8 334.4 434.89 334.4 431.3C334.4 427.71 331.49 424.8 327.9 424.8C324.31 424.8 321.4 427.71 321.4 431.3C321.4 434.89 324.31 437.8 327.9 437.8Z" fill="#F2F2F2"/>
<path opacity="0.77" d="M339.9 418.3C345.257 418.3 349.6 413.958 349.6 408.6C349.6 403.243 345.257 398.9 339.9 398.9C334.543 398.9 330.2 403.243 330.2 408.6C330.2 413.958 334.543 418.3 339.9 418.3Z" fill="#F2F2F2"/>
<line x1="488" y1="297.5" x2="495" y2="297.5" stroke="#F6CDF7"/>
<path d="M677.312 384.172C677.312 388.812 670 392.75 670 392.75C670 392.75 662.688 388.812 662.688 384.172C662.688 383.165 663.088 382.199 663.8 381.487C664.512 380.775 665.477 380.375 666.484 380.375C668.073 380.375 669.433 381.241 670 382.625C670.567 381.241 671.927 380.375 673.516 380.375C674.523 380.375 675.488 380.775 676.2 381.487C676.912 382.199 677.312 383.165 677.312 384.172Z" fill="#CECECE"/>
<path d="M673.516 379.812C672.064 379.812 670.792 380.437 670 381.492C669.208 380.437 667.936 379.812 666.484 379.812C665.329 379.814 664.221 380.274 663.403 381.091C662.586 381.908 662.126 383.016 662.125 384.172C662.125 389.094 669.423 393.078 669.734 393.242C669.815 393.286 669.907 393.309 670 393.309C670.093 393.309 670.185 393.286 670.266 393.242C670.577 393.078 677.875 389.094 677.875 384.172C677.874 383.016 677.414 381.908 676.597 381.091C675.779 380.274 674.671 379.814 673.516 379.812ZM670 392.103C668.716 391.355 663.25 387.947 663.25 384.172C663.251 383.314 663.592 382.492 664.199 381.886C664.805 381.28 665.627 380.939 666.484 380.938C667.852 380.938 669 381.666 669.48 382.836C669.522 382.939 669.594 383.027 669.687 383.089C669.779 383.152 669.888 383.185 670 383.185C670.112 383.185 670.221 383.152 670.313 383.089C670.406 383.027 670.478 382.939 670.52 382.836C671 381.664 672.148 380.938 673.516 380.938C674.373 380.939 675.195 381.28 675.801 381.886C676.408 382.492 676.749 383.314 676.75 384.172C676.75 387.941 671.282 391.354 670 392.103Z" fill="black"/>
</g>
<defs>
<clipPath id="clip0_121_2452">
<rect width="1000" height="1000" rx="500" fill="white"/>
</clipPath>
</defs>
</svg>
