<svg width="121" height="121" viewBox="0 0 121 121" fill="none" xmlns="http://www.w3.org/2000/svg">
<rect width="121" height="121" rx="60.5" fill="#ACBAFF" fill-opacity="0.2"/>
<path d="M43.532 39.0358C43.867 40.6158 43.654 42.4498 42.435 43.5298C40.859 44.9258 38.441 44.4998 36.322 44.4268C34.204 44.3538 31.512 45.3298 31.537 47.4168C31.554 48.8058 32.806 49.8148 33.798 50.8038C35.109 52.1098 36.119 53.7058 36.732 55.4398C36.953 56.0648 37.123 56.7498 36.921 57.3818C36.45 58.8598 34.466 59.0708 32.897 59.1828C31.226 59.3028 29.523 59.6398 28.117 60.5358C26.71 61.4328 25.645 62.9748 25.689 64.6238C25.74 66.5088 27.162 68.0828 28.687 69.2238C30.212 70.3648 31.952 71.2878 33.143 72.7638C34.335 74.2398 34.796 76.5408 33.529 77.9548C33.093 78.4418 32.503 78.7698 31.9 79.0328C30.379 79.6978 28.714 80.0088 27.212 80.7148C25.71 81.4218 24.312 82.6808 24.13 84.3088C33.871 84.1998 43.14 88.0358 52.59 90.3648C66.428 93.7748 77.641 89.7108 91.559 86.6348C89.813 86.0078 87.452 86.4048 86.45 84.8638C85.551 83.4828 86.595 81.6298 87.921 80.6358C89.247 79.6418 90.905 79.0078 91.878 77.6758C92.872 76.3168 92.906 74.3478 91.959 72.9558C90.946 71.4658 89.106 70.7958 87.602 69.7848C86.098 68.7728 84.803 66.8578 85.651 65.2708C86.167 64.3048 87.284 63.8468 88.213 63.2498C90.098 62.0378 91.398 59.9818 91.669 57.7818C91.768 56.9818 91.731 56.1408 91.376 55.4128C90.48 53.5728 88.047 53.1508 86.398 51.9158C83.996 50.1168 83.509 46.8398 82.61 44.0038C80.401 37.0278 74.48 31.3058 67.354 29.2588" fill="#000307"/>
<path d="M56.6609 32.8475C55.5109 32.5595 54.647 31.5605 54.209 30.4585C53.771 29.3575 53.6919 28.1515 53.6179 26.9685C53.5739 26.2685 53.5379 25.5305 53.8539 24.9045C54.3139 23.9925 55.4309 23.5665 56.4509 23.6225C57.4719 23.6785 58.425 24.1225 59.349 24.5585C58.529 23.3465 58.599 21.6835 59.242 20.3685C59.885 19.0535 61.02 18.0415 62.236 17.2275C62.99 16.7225 63.8019 16.2735 64.6919 16.0915C66.7239 15.6775 68.7819 16.7265 70.3679 18.0635C71.9379 19.3875 73.2619 21.0665 73.8859 23.0235C74.5099 24.9805 74.368 27.2325 73.24 28.9495C72.112 30.6665 69.9289 31.7145 67.9289 31.2495" fill="#000307"/>
<path d="M42.043 44.9585C41.686 43.6065 41.379 42.2105 41.523 40.8205C41.667 39.4295 42.331 38.0265 43.532 37.3105C44.717 36.6025 46.19 36.6645 47.568 36.7485C46.511 35.6335 46.655 33.7025 47.675 32.5535C48.695 31.4045 50.374 30.9955 51.892 31.2345C53.41 31.4745 54.783 32.2815 55.984 33.2405" fill="#000307"/>
<path d="M43.224 44.6337C42.782 42.9397 42.31 40.9607 43.241 39.3397C44.148 37.7617 45.974 37.8787 47.568 37.9727C48.702 38.0397 49.083 36.6247 48.434 35.8827C47.331 34.6217 48.628 32.9317 49.922 32.5547C51.795 32.0087 53.671 32.9707 55.117 34.1077C55.636 34.5157 56.342 34.6147 56.849 34.1077C57.274 33.6827 57.372 32.7867 56.849 32.3757C54.439 30.4807 51.387 29.1567 48.392 30.5327C45.693 31.7727 44.699 35.3247 46.703 37.6147C46.992 36.9177 47.28 36.2207 47.569 35.5247C45.112 35.3797 42.668 35.6797 41.235 37.9257C39.815 40.1517 40.235 42.8767 40.863 45.2847C41.26 46.8087 43.623 46.1627 43.224 44.6337Z" fill="#000307"/>
<path d="M104.589 120.674C96.434 95.7162 71.417 97.6172 71.417 97.6172L48.175 98.2972C27.294 101.185 21 120.66 21 120.66L104.589 120.674Z" fill="#1B7196"/>
<path d="M89.582 101.888C82.555 98.03 75.465 97.587 72.667 97.584C75.239 101.171 77.851 104.728 80.469 108.282C83.492 106.13 86.528 103.996 89.582 101.888Z" fill="#1B7196"/>
<path d="M87.443 117.782C88.146 118.745 88.853 119.706 89.552 120.672L104.59 120.675C103.645 117.783 102.47 115.259 101.137 113.045C96.546 114.55 91.969 116.095 87.443 117.782Z" fill="#F59252"/>
<path d="M42.537 107.876C43.911 104.72 45.333 101.585 46.882 98.5107C41.924 99.3847 37.828 101.205 34.472 103.444C37.15 104.941 39.837 106.42 42.537 107.876Z" fill="#1B7196"/>
<path d="M23.604 115.176C21.758 118.335 21 120.659 21 120.659L37.075 120.662C37.238 120.288 37.395 119.912 37.556 119.537C32.869 118.221 28.235 116.706 23.604 115.176Z" fill="#F59252"/>
<path d="M50.2869 77.1602C50.2869 77.1602 49.5789 97.3172 48.3379 98.4462C47.0969 99.5752 51.2199 109.8 59.6669 109.331C67.6639 108.887 71.2179 99.1132 71.2179 99.1132L68.5359 77.8842L50.2869 77.1602Z" fill="#F59252"/>
<path d="M50.287 77.1602L68.536 77.8842C68.536 77.8842 65.969 89.4482 58.981 88.9182C51.993 88.3882 50.287 77.1602 50.287 77.1602Z" fill="#000307"/>
<path d="M42.2909 52.3021C42.2909 52.3021 41.4139 58.3051 41.6509 59.0161C41.8879 59.7271 36.9919 56.9251 37.4369 61.5991C37.7089 64.4531 39.1699 66.6271 42.3299 66.6281C42.3299 66.6281 46.1999 81.4051 57.2139 82.6051C68.3979 83.8231 76.0779 69.5881 76.0779 69.5881C76.0779 69.5881 80.9299 68.8031 81.2019 64.5891C81.3059 60.8581 78.3479 61.1911 78.3479 61.1911C78.3479 61.1911 80.9599 52.1271 79.3819 46.5951C77.8039 41.0631 78.0119 31.4551 64.7379 30.3451C51.4639 29.2341 43.1639 40.6881 42.6879 44.0061C42.2139 47.3241 42.2909 52.3021 42.2909 52.3021Z" fill="#F59252"/>
<path d="M77.7339 59.3299C75.1839 58.2989 72.4239 57.0829 71.1809 54.6279C70.6789 53.6359 70.4739 52.519 70.3839 51.411C70.3709 51.252 72.3759 48.3569 70.2539 50.9569C70.0599 51.1949 71.5869 48.098 71.2899 48.176C68.8379 48.817 67.8509 52.8819 62.3099 49.1209C60.2119 47.6979 59.5119 44.7259 59.9299 42.2259C59.0729 43.1869 58.2149 44.1489 57.2839 45.0369C56.3989 45.8809 55.4129 46.6769 54.2389 47.0189C52.8629 47.4199 51.3399 47.1409 50.0939 46.4319C48.8479 45.7229 48.1319 44.4319 47.4019 43.1979L47.0399 43.831C50.1169 53.966 49.5739 59.2139 41.0679 57.9469C41.0679 57.9469 38.1899 35.231 52.5719 30.969C52.5719 30.969 58.7389 28.0639 65.8489 29.6469C93.5509 33.9219 76.9789 60.507 78.7109 61.249" fill="#000307"/>
<path d="M64.146 56.7051C64.146 56.7051 64.639 54.9471 65.981 55.1421C69.719 55.6861 69.787 58.0641 69.787 58.0641L64.146 56.7051Z" fill="#000307"/>
<path d="M56.058 56.5686C56.058 56.5686 56.824 54.8946 55.514 54.5976C53.174 54.0676 52.18 53.9396 49.796 56.1436L56.058 56.5686Z" fill="#000307"/>
<path d="M62.703 70.008C62.835 69.964 61.603 73.055 58.234 72.743C55.159 72.458 54.649 69.042 54.649 69.042L62.703 70.008Z" fill="white"/>
<path d="M58.116 67.9569L59.95 68.1479C60.524 68.2079 61.011 67.7309 60.964 67.1559L59.345 64.4639L57.318 66.8129C57.18 67.3589 57.558 67.8989 58.116 67.9569Z" fill="#CC5E47"/>
<path d="M41.515 61.0549C41.515 61.0549 41.791 64.3299 42.027 65.0419C42.264 65.7529 39.436 64.4068 39.476 62.5498C39.517 60.6928 41.515 61.0549 41.515 61.0549Z" fill="#CC5E47"/>
<path d="M76.99 67.1703L78.213 62.8213C78.213 62.8213 79.927 63.1903 79.436 64.8603C78.757 67.1703 76.99 67.1703 76.99 67.1703Z" fill="#CC5E47"/>
<path d="M65.858 63.6232C65.608 64.5562 64.973 65.1972 64.44 65.0542C63.907 64.9112 63.678 64.0392 63.928 63.1062C64.178 62.1732 64.813 61.5322 65.346 61.6752C65.879 61.8182 66.109 62.6902 65.858 63.6232Z" fill="#000307"/>
<path d="M55.765 62.6087C55.708 63.5727 55.215 64.3287 54.664 64.2957C54.113 64.2627 53.713 63.4557 53.769 62.4907C53.826 61.5267 54.319 60.7717 54.87 60.8037C55.421 60.8357 55.822 61.6437 55.765 62.6087Z" fill="#000307"/>
<path d="M50.445 64.6158C52.046 65.4168 52.694 67.3649 51.893 68.9659C51.092 70.5669 49.144 71.2148 47.543 70.4138C45.942 69.6128 45.294 67.6649 46.095 66.0639C46.897 64.4629 48.844 63.8148 50.445 64.6158Z" fill="#F57C3E"/>
<path d="M69.602 67.2432C71.203 68.0442 71.851 69.9922 71.05 71.5932C70.249 73.1942 68.301 73.8422 66.7 73.0412C65.099 72.2402 64.451 70.2922 65.252 68.6912C66.053 67.0902 68.001 66.4412 69.602 67.2432Z" fill="#F57C3E"/>
<path d="M77.271 69.5083C77.2239 70.3354 77.6328 71.0313 78.1842 71.0627C78.7355 71.0941 79.2207 70.4491 79.2678 69.622C79.3149 68.7949 78.9061 68.099 78.3547 68.0676" stroke="#1B7196" stroke-width="0.5" stroke-linecap="round"/>
<path d="M42.0804 67.4976C42.1275 68.3247 41.7187 69.0206 41.1673 69.052C40.6159 69.0834 40.1307 68.4384 40.0836 67.6113C40.0365 66.7842 40.4453 66.0882 40.9967 66.0569" stroke="#1B7196" stroke-width="0.5" stroke-linecap="round"/>
</svg>
